<?xml version="1.0" encoding="UTF-8"?>
<svg width="101px" height="17px" viewBox="0 0 101 17" version="1.1" xmlns="http://www.w3.org/2000/svg" xmlns:xlink="http://www.w3.org/1999/xlink">
    <!-- Generator: Sketch 54.1 (76490) - https://sketchapp.com -->
    <title>runverter-io-logo</title>
    <desc>Created with Sketch.</desc>
    <g id="projects" stroke="none" stroke-width="1" fill="none" fill-rule="evenodd">
        <g id="Artboard" transform="translate(-139.000000, -18.000000)" fill="#4375A7">
            <path d="M139.387509,28.2976515 C139.171488,28.2976515 139.027474,28.1536375 139.027474,27.9376164 C139.027474,27.7215952 139.171488,27.5775812 139.387509,27.5775812 L141.187685,27.5775812 C141.403706,27.5775812 141.54772,27.7215952 141.54772,27.9376164 C141.54772,28.1536375 141.403706,28.2976515 141.187685,28.2976515 L139.387509,28.2976515 Z M139.387509,30.0978275 C139.171488,30.0978275 139.027474,29.9538134 139.027474,29.7377923 C139.027474,29.5217712 139.171488,29.3777571 139.387509,29.3777571 L142.987861,29.3777571 C143.203882,29.3777571 143.347896,29.5217712 143.347896,29.7377923 C143.347896,29.9538134 143.203882,30.0978275 142.987861,30.0978275 L139.387509,30.0978275 Z M144.788037,31.1779331 C144.968054,31.1779331 145.148072,31.3219471 145.148072,31.5379683 C145.148072,31.7539894 145.004058,31.8980035 144.788037,31.8980035 L139.387509,31.8980035 C139.171488,31.8980035 139.027474,31.7539894 139.027474,31.5379683 C139.027474,31.3219471 139.171488,31.1779331 139.387509,31.1779331 L144.788037,31.1779331 Z M156.957226,30.4578627 C158.505378,30.4578627 159.54948,31.5739718 159.54948,32.9421055 L159.54948,34.4902568 C159.54948,34.6702744 159.405466,34.7062779 159.189444,34.7062779 L151.16066,34.7062779 C151.052649,34.7062779 150.980642,34.7422815 150.908635,34.6702744 L139.423512,23.4371765 C139.351505,23.3651694 139.315502,23.2931624 139.315502,23.1851518 C139.315502,23.0771413 139.351505,23.0051342 139.423512,22.9331272 C139.423512,22.9331272 142.843847,19.4767894 143.419903,18.9007331 C143.995959,18.3246768 144.572016,18.0366486 145.112068,18.0366486 C146.084164,18.0366486 146.76823,19.0447471 146.76823,20.4848879 C146.76823,21.3489724 147.38029,22.3210674 148.532403,23.0771413 C149.540501,23.7612081 150.908635,24.2292539 151.628705,24.2292539 L151.77272,24.2292539 C151.916734,24.1932504 152.096751,24.2652574 152.168758,24.4092715 L152.240765,24.517282 C152.780818,25.7774052 153.71691,27.9376164 154.580994,30.4578627 L156.957226,30.4578627 Z M154.328969,31.1779331 C154.184955,31.1779331 154.040941,31.1419296 153.968934,30.961912 C153.82492,30.4218592 153.644903,29.9898169 153.464885,29.4857677 L150.296575,30.6378803 L151.988741,32.2580386 L158.721399,32.2580386 C158.505378,31.5379683 157.857314,31.1779331 156.957226,31.1779331 L154.328969,31.1779331 Z M152.672808,27.36156 C152.49279,27.0015249 152.348776,26.6414897 152.240765,26.317458 L147.632315,28.0096234 L148.460396,28.8377043 C148.496399,28.8017008 148.532403,28.7656973 148.60441,28.7296938 L152.672808,27.36156 C152.636804,27.36156 152.636804,27.36156 152.672808,27.36156 Z M152.852825,28.0456269 L148.964445,29.3777571 L149.792526,30.2058381 C149.828529,30.1698345 149.864533,30.133831 149.93654,30.0978275 L153.21286,28.8377043 C153.10485,28.5496762 152.996839,28.261648 152.888829,28.0096234 C152.888829,28.0096234 152.888829,28.0456269 152.852825,28.0456269 Z M143.959956,19.4767894 C143.635924,19.7648175 142.519815,20.9169301 141.511717,21.9250287 L147.056259,27.5055741 C147.092262,27.4695706 147.128266,27.4335671 147.200273,27.3975636 L151.916734,25.6693946 C151.808723,25.41737 151.700712,25.2013489 151.592702,24.9853278 C150.584603,24.9493243 149.252473,24.4812785 148.172368,23.7252046 C146.840237,22.7891131 146.084164,21.673004 146.084164,20.5568949 C146.084164,19.5487964 145.724128,18.828726 145.148072,18.828726 C144.788037,18.828726 144.391998,19.0447471 143.959956,19.4767894 Z M151.340677,34.0582146 L158.829409,34.0582146 L158.829409,32.978109 L151.700712,32.978109 L151.592702,32.906102 L141.007667,22.3930744 C140.683636,22.7171061 140.395607,23.0051342 140.21559,23.1851518 L151.340677,34.0582146 Z M168.870006,30.9388053 L168.870006,24.0407068 L169.844883,24.0407068 C170.015206,24.0407068 170.133985,24.0720821 170.201218,24.1348329 C170.26845,24.1975836 170.313272,24.3051563 170.335683,24.4575509 L170.436533,25.2912392 C170.683054,24.8654307 170.972155,24.529266 171.303838,24.2827453 C171.63552,24.0362246 172.007542,23.9129642 172.419904,23.9129642 C172.760551,23.9129642 173.042929,23.9914026 173.267039,24.1482794 L173.051894,25.3920886 C173.038447,25.4727681 173.009313,25.5299161 172.964491,25.5635326 C172.919669,25.5971491 172.859159,25.6139573 172.782962,25.6139573 C172.715729,25.6139573 172.623844,25.5982696 172.507307,25.5668943 C172.39077,25.5355189 172.236134,25.5198312 172.0434,25.5198312 C171.698271,25.5198312 171.402446,25.6150778 171.155925,25.8055711 C170.909404,25.9960644 170.700982,26.2750811 170.530659,26.6426211 L170.530659,30.9388053 L168.870006,30.9388053 Z M175.8824,24.0407068 L175.8824,28.4242937 C175.8824,28.8456201 175.979888,29.1716998 176.174863,29.4025329 C176.369839,29.6333659 176.662302,29.7487824 177.052253,29.7487824 C177.339114,29.7487824 177.608045,29.6849112 177.859048,29.5571686 C178.110051,29.429426 178.347607,29.2534999 178.571717,29.0293901 L178.571717,24.0407068 L180.232371,24.0407068 L180.232371,30.9388053 L179.217153,30.9388053 C179.002008,30.9388053 178.860819,30.8379559 178.793586,30.6362571 L178.67929,30.0849471 C178.53586,30.2283773 178.387947,30.3594816 178.235553,30.4782597 C178.083158,30.5970379 177.920678,30.6978873 177.748114,30.7808079 C177.575549,30.8637285 177.389538,30.9287204 177.190081,30.9757834 C176.990623,31.0228465 176.776598,31.046378 176.548006,31.046378 C176.171502,31.046378 175.838699,30.9825067 175.549597,30.8547641 C175.260495,30.7270216 175.017336,30.5466132 174.82012,30.3135391 C174.622903,30.0804649 174.47387,29.8036893 174.373021,29.4832124 C174.272171,29.1627354 174.221747,28.8097625 174.221747,28.4242937 L174.221747,24.0407068 L175.8824,24.0407068 Z M182.00732,30.9388053 L182.00732,24.0407068 L183.022537,24.0407068 C183.237683,24.0407068 183.378872,24.1415562 183.446105,24.3432549 L183.560401,24.8878417 C183.699349,24.7444114 183.846141,24.6144278 184.000776,24.4978907 C184.155412,24.3813536 184.319012,24.2805042 184.491577,24.1953425 C184.664141,24.1101808 184.849032,24.045189 185.046248,24.000367 C185.243465,23.955545 185.45861,23.9331341 185.691684,23.9331341 C186.068189,23.9331341 186.402112,23.9970054 186.693455,24.1247479 C186.984798,24.2524905 187.227957,24.4317783 187.422932,24.6626114 C187.617908,24.8934444 187.76582,25.1690994 187.86667,25.4895764 C187.967519,25.8100533 188.017944,26.1630262 188.017944,26.548495 L188.017944,30.9388053 L186.35729,30.9388053 L186.35729,26.548495 C186.35729,26.1271687 186.259803,25.801089 186.064827,25.5702559 C185.869852,25.3394228 185.577388,25.2240063 185.187437,25.2240063 C184.900577,25.2240063 184.631645,25.2889981 184.380642,25.4189818 C184.129639,25.5489655 183.892083,25.7260122 183.667973,25.9501219 L183.667973,30.9388053 L182.00732,30.9388053 Z M192.865438,30.9388053 L191.35942,30.9388053 L188.616317,24.0407068 L189.994592,24.0407068 C190.115611,24.0407068 190.217581,24.069841 190.300502,24.1281096 C190.383422,24.1863781 190.44057,24.2603343 190.471946,24.3499782 L191.803158,28.0343428 C191.879355,28.2494881 191.943226,28.4601513 191.994772,28.6663323 C192.046317,28.8725133 192.092259,29.0786943 192.132599,29.2848752 C192.172939,29.0786943 192.218881,28.8725133 192.270427,28.6663323 C192.321972,28.4601513 192.388084,28.2494881 192.468764,28.0343428 L193.833592,24.3499782 C193.864968,24.2603343 193.920995,24.1863781 194.001674,24.1281096 C194.082354,24.069841 194.178721,24.0407068 194.290776,24.0407068 L195.601818,24.0407068 L192.865438,30.9388053 Z M199.212226,23.9331341 C199.646999,23.9331341 200.047035,24.0026081 200.412334,24.1415562 C200.777633,24.2805042 201.092507,24.4833235 201.356957,24.7500142 C201.621406,25.0167048 201.827587,25.343905 201.9755,25.7316149 C202.123412,26.1193248 202.197369,26.5619416 202.197369,27.0594653 C202.197369,27.1849667 202.191766,27.2891778 202.18056,27.3720984 C202.169355,27.455019 202.149185,27.5200108 202.120051,27.5670739 C202.090916,27.6141369 202.051697,27.6477534 202.002393,27.6679233 C201.953089,27.6880932 201.890338,27.6981781 201.814141,27.6981781 L197.551573,27.6981781 C197.600877,28.406365 197.791371,28.9262996 198.123053,29.2579821 C198.454735,29.5896645 198.893991,29.7555057 199.440818,29.7555057 C199.70975,29.7555057 199.941704,29.7241304 200.136679,29.6613796 C200.331655,29.5986289 200.501978,29.5291549 200.64765,29.4529576 C200.793321,29.3767602 200.921063,29.3072862 201.030877,29.2445355 C201.140691,29.1817847 201.247143,29.1504094 201.350234,29.1504094 C201.417467,29.1504094 201.475735,29.163856 201.525039,29.1907491 C201.574343,29.2176423 201.616924,29.255741 201.652782,29.3050451 L202.136859,29.9101415 C201.953089,30.1252868 201.746908,30.3056952 201.518316,30.4513666 C201.289724,30.5970379 201.051047,30.713575 200.802285,30.8009778 C200.553523,30.8883806 200.300279,30.9500108 200.042553,30.9858683 C199.784827,31.0217259 199.534945,31.0396547 199.292906,31.0396547 C198.813311,31.0396547 198.367333,30.9600957 197.954971,30.8009778 C197.542609,30.6418599 197.184033,30.4065446 196.879244,30.095032 C196.574455,29.7835195 196.334657,29.3980507 196.159851,28.9386256 C195.985046,28.4792006 195.897643,27.9469399 195.897643,27.3418436 C195.897643,26.8712131 195.97384,26.4285963 196.126235,26.0139932 C196.27863,25.5993902 196.497137,25.2385734 196.781756,24.9315431 C197.066375,24.6245127 197.413746,24.3813536 197.823866,24.2020658 C198.233987,24.022778 198.696774,23.9331341 199.212226,23.9331341 Z M199.245843,25.1231569 C198.761766,25.1231569 198.38302,25.2598639 198.109606,25.5332778 C197.836193,25.8066917 197.661387,26.1944016 197.58519,26.6964075 L200.704798,26.6964075 C200.704798,26.4812621 200.675663,26.2784428 200.617395,26.0879495 C200.559126,25.8974562 200.469482,25.7304944 200.348463,25.5870641 C200.227444,25.4436339 200.075049,25.3304584 199.891279,25.2475378 C199.707509,25.1646172 199.492364,25.1231569 199.245843,25.1231569 Z M203.54875,30.9388053 L203.54875,24.0407068 L204.523628,24.0407068 C204.693951,24.0407068 204.812729,24.0720821 204.879962,24.1348329 C204.947195,24.1975836 204.992017,24.3051563 205.014428,24.4575509 L205.115278,25.2912392 C205.361798,24.8654307 205.6509,24.529266 205.982582,24.2827453 C206.314265,24.0362246 206.686287,23.9129642 207.098649,23.9129642 C207.439296,23.9129642 207.721674,23.9914026 207.945784,24.1482794 L207.730639,25.3920886 C207.717192,25.4727681 207.688058,25.5299161 207.643236,25.5635326 C207.598414,25.5971491 207.537904,25.6139573 207.461707,25.6139573 C207.394474,25.6139573 207.302589,25.5982696 207.186052,25.5668943 C207.069515,25.5355189 206.914879,25.5198312 206.722145,25.5198312 C206.377016,25.5198312 206.081191,25.6150778 205.83467,25.8055711 C205.588149,25.9960644 205.379727,26.2750811 205.209404,26.6426211 L205.209404,30.9388053 L203.54875,30.9388053 Z M211.30743,31.046378 C210.711298,31.046378 210.251873,30.8771751 209.929155,30.5387694 C209.606437,30.2003636 209.445078,29.7330948 209.445078,29.1369628 L209.445078,25.2845159 L208.745856,25.2845159 C208.656212,25.2845159 208.578894,25.2553817 208.513902,25.1971131 C208.44891,25.1388446 208.416414,25.0514418 208.416414,24.9349047 L208.416414,24.276022 L209.525758,24.0944931 L209.875369,22.2119711 C209.893298,22.1223272 209.934758,22.0528532 209.99975,22.003549 C210.064742,21.9542449 210.146542,21.9295928 210.24515,21.9295928 L211.105732,21.9295928 L211.105732,24.1012164 L212.921021,24.1012164 L212.921021,25.2845159 L211.105732,25.2845159 L211.105732,29.0226668 C211.105732,29.2378122 211.159518,29.4058945 211.267091,29.5269138 C211.374663,29.6479331 211.518094,29.7084427 211.697381,29.7084427 C211.800472,29.7084427 211.886754,29.6961167 211.956228,29.6714646 C212.025702,29.6468125 212.086212,29.6210399 212.137757,29.5941467 C212.189302,29.5672535 212.235245,29.5414809 212.275585,29.5168288 C212.315924,29.4921768 212.356264,29.4798507 212.396604,29.4798507 C212.445908,29.4798507 212.486248,29.4921768 212.517623,29.5168288 C212.548999,29.5414809 212.582615,29.578459 212.618473,29.6277632 L213.115996,30.4345583 C212.873958,30.6362571 212.596062,30.7886518 212.282308,30.8917422 C211.968554,30.9948327 211.643595,31.046378 211.30743,31.046378 Z M217.096186,23.9331341 C217.530959,23.9331341 217.930995,24.0026081 218.296293,24.1415562 C218.661592,24.2805042 218.976467,24.4833235 219.240916,24.7500142 C219.505366,25.0167048 219.711547,25.343905 219.859459,25.7316149 C220.007371,26.1193248 220.081328,26.5619416 220.081328,27.0594653 C220.081328,27.1849667 220.075725,27.2891778 220.064519,27.3720984 C220.053314,27.455019 220.033144,27.5200108 220.00401,27.5670739 C219.974876,27.6141369 219.935656,27.6477534 219.886352,27.6679233 C219.837048,27.6880932 219.774297,27.6981781 219.6981,27.6981781 L215.435532,27.6981781 C215.484836,28.406365 215.67533,28.9262996 216.007012,29.2579821 C216.338695,29.5896645 216.77795,29.7555057 217.324778,29.7555057 C217.593709,29.7555057 217.825663,29.7241304 218.020638,29.6613796 C218.215614,29.5986289 218.385937,29.5291549 218.531609,29.4529576 C218.67728,29.3767602 218.805023,29.3072862 218.914836,29.2445355 C219.02465,29.1817847 219.131102,29.1504094 219.234193,29.1504094 C219.301426,29.1504094 219.359694,29.163856 219.408998,29.1907491 C219.458303,29.2176423 219.500883,29.255741 219.536741,29.3050451 L220.020818,29.9101415 C219.837048,30.1252868 219.630867,30.3056952 219.402275,30.4513666 C219.173683,30.5970379 218.935006,30.713575 218.686244,30.8009778 C218.437483,30.8883806 218.184239,30.9500108 217.926512,30.9858683 C217.668786,31.0217259 217.418904,31.0396547 217.176865,31.0396547 C216.69727,31.0396547 216.251292,30.9600957 215.83893,30.8009778 C215.426568,30.6418599 215.067992,30.4065446 214.763203,30.095032 C214.458414,29.7835195 214.218616,29.3980507 214.043811,28.9386256 C213.869005,28.4792006 213.781602,27.9469399 213.781602,27.3418436 C213.781602,26.8712131 213.8578,26.4285963 214.010194,26.0139932 C214.162589,25.5993902 214.381096,25.2385734 214.665715,24.9315431 C214.950335,24.6245127 215.297705,24.3813536 215.707826,24.2020658 C216.117947,24.022778 216.580733,23.9331341 217.096186,23.9331341 Z M217.129802,25.1231569 C216.645725,25.1231569 216.26698,25.2598639 215.993566,25.5332778 C215.720152,25.8066917 215.545346,26.1944016 215.469149,26.6964075 L218.588757,26.6964075 C218.588757,26.4812621 218.559622,26.2784428 218.501354,26.0879495 C218.443085,25.8974562 218.353441,25.7304944 218.232422,25.5870641 C218.111403,25.4436339 217.959008,25.3304584 217.775238,25.2475378 C217.591468,25.1646172 217.376323,25.1231569 217.129802,25.1231569 Z M221.43271,30.9388053 L221.43271,24.0407068 L222.407587,24.0407068 C222.57791,24.0407068 222.696689,24.0720821 222.763922,24.1348329 C222.831155,24.1975836 222.875976,24.3051563 222.898387,24.4575509 L222.999237,25.2912392 C223.245758,24.8654307 223.534859,24.529266 223.866542,24.2827453 C224.198224,24.0362246 224.570246,23.9129642 224.982608,23.9129642 C225.323255,23.9129642 225.605633,23.9914026 225.829743,24.1482794 L225.614598,25.3920886 C225.601151,25.4727681 225.572017,25.5299161 225.527195,25.5635326 C225.482373,25.5971491 225.421863,25.6139573 225.345666,25.6139573 C225.278433,25.6139573 225.186548,25.5982696 225.070011,25.5668943 C224.953474,25.5355189 224.798838,25.5198312 224.606104,25.5198312 C224.260975,25.5198312 223.96515,25.6150778 223.718629,25.8055711 C223.472108,25.9960644 223.263686,26.2750811 223.093363,26.6426211 L223.093363,30.9388053 L221.43271,30.9388053 Z M225.614598,30.0244375 C225.614598,29.8854894 225.64037,29.7532646 225.691916,29.6277632 C225.743461,29.5022617 225.815176,29.394689 225.907061,29.3050451 C225.998946,29.2154012 226.107639,29.1436861 226.233141,29.0898997 C226.358642,29.0361134 226.493108,29.0092202 226.636538,29.0092202 C226.775486,29.0092202 226.907711,29.0361134 227.033213,29.0898997 C227.158714,29.1436861 227.266287,29.2154012 227.355931,29.3050451 C227.445575,29.394689 227.51729,29.5022617 227.571076,29.6277632 C227.624862,29.7532646 227.651756,29.8854894 227.651756,30.0244375 C227.651756,30.1678677 227.624862,30.301213 227.571076,30.4244734 C227.51729,30.5477338 227.445575,30.6541859 227.355931,30.7438298 C227.266287,30.8334737 227.158714,30.9040683 227.033213,30.9556135 C226.907711,31.0071588 226.775486,31.0329314 226.636538,31.0329314 C226.493108,31.0329314 226.358642,31.0071588 226.233141,30.9556135 C226.107639,30.9040683 225.998946,30.8334737 225.907061,30.7438298 C225.815176,30.6541859 225.743461,30.5477338 225.691916,30.4244734 C225.64037,30.301213 225.614598,30.1678677 225.614598,30.0244375 Z M230.804513,24.0407068 L230.804513,30.9388053 L229.144233,30.9388053 L229.144233,24.0407068 L230.804513,24.0407068 Z M231.053835,22.0304422 C231.053835,22.1738724 231.024888,22.3083383 230.966059,22.4338398 C230.908164,22.5593412 230.830659,22.669155 230.734479,22.7632811 C230.638298,22.8574072 230.524376,22.932484 230.394579,22.9885114 C230.264782,23.0445389 230.125647,23.0725526 229.978108,23.0725526 C229.834304,23.0725526 229.698905,23.0445389 229.570976,22.9885114 C229.44398,22.932484 229.332859,22.8574072 229.238546,22.7632811 C229.144233,22.669155 229.06953,22.5593412 229.013502,22.4338398 C228.957475,22.3083383 228.929461,22.1738724 228.929461,22.0304422 C228.929461,21.8825297 228.957475,21.7435817 229.013502,21.613598 C229.06953,21.4836144 229.144233,21.3715595 229.238546,21.2774334 C229.332859,21.1833073 229.44398,21.1082305 229.570976,21.0522031 C229.698905,20.9961756 229.834304,20.9681619 229.978108,20.9681619 C230.125647,20.9681619 230.264782,20.9961756 230.394579,21.0522031 C230.524376,21.1082305 230.638298,21.1833073 230.734479,21.2774334 C230.830659,21.3715595 230.908164,21.4836144 230.966059,21.613598 C231.024888,21.7435817 231.053835,21.8825297 231.053835,22.0304422 Z M235.625674,23.9331341 C236.141127,23.9331341 236.608022,24.0160547 237.027294,24.1818959 C237.446566,24.3477371 237.804208,24.5830524 238.10022,24.8878417 C238.395297,25.1926309 238.624076,25.5646532 238.785622,26.0039083 C238.947168,26.4431634 239.027474,26.9339638 239.027474,27.4763094 C239.027474,28.0231373 238.947168,28.5161787 238.785622,28.9554339 C238.624076,29.394689 238.395297,29.7689523 238.10022,30.0782238 C237.804208,30.3874953 237.446566,30.6250516 237.027294,30.7908928 C236.608022,30.9567341 236.141127,31.0396547 235.625674,31.0396547 C235.110222,31.0396547 234.641459,30.9567341 234.220319,30.7908928 C233.79918,30.6250516 233.43967,30.3874953 233.140857,30.0782238 C232.842978,29.7689523 232.612332,29.394689 232.448918,28.9554339 C232.285505,28.5161787 232.203331,28.0231373 232.203331,27.4763094 C232.203331,26.9339638 232.285505,26.4431634 232.448918,26.0039083 C232.612332,25.5646532 232.842978,25.1926309 233.140857,24.8878417 C233.43967,24.5830524 233.79918,24.3477371 234.220319,24.1818959 C234.641459,24.0160547 235.110222,23.9331341 235.625674,23.9331341 Z M235.625674,29.762229 C236.199022,29.762229 236.623897,29.5694946 236.899365,29.1840258 C237.175767,28.798557 237.313034,28.2338004 237.313034,27.489756 C237.313034,26.7457116 237.175767,26.1787139 236.899365,25.7887629 C236.623897,25.3988119 236.199022,25.2038364 235.625674,25.2038364 C235.042989,25.2038364 234.612511,25.3999325 234.334242,25.7921246 C234.056906,26.1843167 233.917771,26.7501938 233.917771,27.489756 C233.917771,28.2293182 234.056906,28.7929543 234.334242,29.1806642 C234.612511,29.5683741 235.042989,29.762229 235.625674,29.762229 Z" id="runverter-io-logo"></path>
        </g>
    </g>
</svg>