<?xml version="1.0" encoding="UTF-8"?>
<svg width="100px" height="24px" viewBox="0 0 100 24" version="1.1" xmlns="http://www.w3.org/2000/svg" xmlns:xlink="http://www.w3.org/1999/xlink">
    <!-- Generator: Sketch 55.2 (78181) - https://sketchapp.com -->
    <title>linnr-logo</title>
    <desc>Created with Sketch.</desc>
    <g id="projects" stroke="none" stroke-width="1" fill="none" fill-rule="evenodd">
        <g id="Artboard" transform="translate(-9.000000, -127.000000)" fill-rule="nonzero">
            <g id="linnr-logo" transform="translate(9.000000, 127.000000)">
                <polygon id="Path" fill="#4A598D" points="64.1099855 23.0824891 48.6975398 23.0824891 48.6975398 20.5137482 46.1287988 20.5137482 46.1287988 7.67004342 41.0274964 7.67004342 41.0274964 20.5137482 38.4587554 20.5137482 38.4587554 23.0824891 2.56874096 23.0824891 2.56874096 20.5137482 0 20.5137482 0 2.56874096 2.56874096 2.56874096 2.56874096 -1.0658141e-14 10.2387844 -1.0658141e-14 10.2387844 2.56874096 12.8075253 2.56874096 12.8075253 10.2387844 7.67004342 10.2387844 7.67004342 15.3762663 33.3212735 15.3762663 33.3212735 2.56874096 35.8900145 2.56874096 35.8900145 -1.0658141e-14 51.2662808 -1.0658141e-14 51.2662808 2.56874096 53.8350217 2.56874096 53.8350217 15.3762663 58.9725036 15.3762663 58.9725036 2.56874096 61.5412446 2.56874096 61.5412446 -1.0658141e-14 76.9175109 -1.0658141e-14 76.9175109 2.56874096 79.4862518 2.56874096 79.4862518 15.3762663 84.5875543 15.3762663 84.5875543 2.56874096 87.1562952 2.56874096 87.1562952 -1.0658141e-14 97.431259 -1.0658141e-14 97.431259 2.56874096 100 2.56874096 100 7.67004342 92.2937771 7.67004342 92.2937771 20.5137482 89.7250362 20.5137482 89.7250362 23.0824891 74.3487699 23.0824891 74.3487699 20.5137482 71.7800289 20.5137482 71.7800289 7.67004342 66.642547 7.67004342 66.642547 20.5137482 64.1099855 20.5137482"></polygon>
                <polygon id="Path" fill="#DF5466" points="28.1837916 7.67004342 25.6512301 7.67004342 25.6512301 10.1664255 20.5137482 10.2387844 20.5137482 7.67004342 17.9450072 7.67004342 17.9088278 2.56874096 20.5137482 2.56874096 20.4775687 -4.4408921e-15 25.6150507 -4.4408921e-15 25.6150507 2.56874096 28.1837916 2.56874096"></polygon>
            </g>
        </g>
    </g>
</svg>