<?xml version="1.0" encoding="UTF-8"?>
<svg width="100px" height="15px" viewBox="0 0 100 15" version="1.1" xmlns="http://www.w3.org/2000/svg" xmlns:xlink="http://www.w3.org/1999/xlink">
    <!-- Generator: Sketch 54.1 (76490) - https://sketchapp.com -->
    <title>skycheck-logo</title>
    <desc>Created with Sketch.</desc>
    <g id="projects" stroke="none" stroke-width="1" fill="none" fill-rule="evenodd">
        <g id="Artboard" transform="translate(-149.000000, -69.000000)" fill="#005F7C">
            <path d="M159.002041,79.6552358 C159.002041,78.4509083 158.573382,77.4507042 157.777301,76.7770974 C157.164932,76.2463768 156.491325,75.9606042 155.123699,75.7564809 L153.531537,75.511533 C152.776281,75.389059 152.021025,75.1032864 151.571953,74.7154521 C151.122882,74.3276179 150.918759,73.7560727 150.918759,73.0416412 C150.918759,71.4290672 152.041437,70.3472137 153.980608,70.3472137 C155.511533,70.3472137 156.470912,70.7758726 157.369055,71.5923658 L158.369259,70.5921617 C157.124107,69.4694836 155.899367,69 154.041845,69 C151.163707,69 149.387834,70.6329863 149.387834,73.1028781 C149.387834,74.2663809 149.755256,75.1645234 150.4901,75.8177179 C151.122882,76.3688508 152.021025,76.7362727 153.164115,76.9199837 L154.858338,77.1853439 C155.91978,77.3486426 156.287201,77.4711166 156.756685,77.8793631 C157.226169,78.2876097 157.450704,78.9408042 157.450704,79.6960604 C157.450704,81.3902837 156.144315,82.3904879 154.021433,82.3904879 C152.388447,82.3904879 151.265769,82.0026536 150.061441,80.7983262 L149,81.8597673 C150.367626,83.2273933 151.796489,83.7785262 153.980608,83.7785262 C157.001633,83.7785262 159.002041,82.2067769 159.002041,79.6552358 Z M173.127373,83.6560523 L167.901817,74.7358645 L172.474178,69.122474 L170.575832,69.122474 L163.798939,77.4711166 L163.798939,69.122474 L162.247602,69.122474 L162.247602,83.6560523 L163.798939,83.6560523 L163.798939,79.5939988 L166.860788,75.9197795 L171.290263,83.6560523 L173.127373,83.6560523 Z M183.741784,69.122474 L182.067973,69.122474 L178.679526,76.0830782 L175.250255,69.122474 L173.576444,69.122474 L177.903858,77.6548275 L177.903858,83.6560523 L179.455195,83.6560523 L179.455195,77.6548275 L183.741784,69.122474 Z M195.805471,79.1857522 L192.927332,79.1857522 C192.64156,80.3492549 191.906716,81.2473974 190.477853,81.2473974 C189.702184,81.2473974 189.069402,80.9616248 188.661155,80.4921413 C188.110022,79.8797714 187.946724,79.1857522 187.946724,76.3892631 C187.946724,73.592774 188.110022,72.8987548 188.661155,72.286385 C189.069402,71.8169014 189.702184,71.5311288 190.477853,71.5311288 C191.906716,71.5311288 192.64156,72.4292713 192.927332,73.592774 L195.805471,73.592774 C195.295162,70.551337 193.17228,69 190.45744,69 C188.865279,69 187.55889,69.5715452 186.538273,70.5921617 C185.068585,72.0618494 185.10941,73.8785466 185.10941,76.3892631 C185.10941,78.8999796 185.068585,80.7166769 186.538273,82.1863646 C187.55889,83.206981 188.865279,83.7785262 190.45744,83.7785262 C193.151868,83.7785262 195.295162,82.2271892 195.805471,79.1857522 Z M208.848949,83.6560523 L208.848949,69.122474 L206.011635,69.122474 L206.011635,75.0624617 L201.092264,75.0624617 L201.092264,69.122474 L198.25495,69.122474 L198.25495,83.6560523 L201.092264,83.6560523 L201.092264,77.5731782 L206.011635,77.5731782 L206.011635,83.6560523 L208.848949,83.6560523 Z M221.810778,83.6560523 L221.810778,81.1249235 L215.074709,81.1249235 L215.074709,77.5935905 L220.810574,77.5935905 L220.810574,75.0624617 L215.074709,75.0624617 L215.074709,71.6536028 L221.810778,71.6536028 L221.810778,69.122474 L212.237395,69.122474 L212.237395,83.6560523 L221.810778,83.6560523 Z M234.793019,79.1857522 L231.914881,79.1857522 C231.629108,80.3492549 230.894264,81.2473974 229.465401,81.2473974 C228.689733,81.2473974 228.05695,80.9616248 227.648704,80.4921413 C227.097571,79.8797714 226.934272,79.1857522 226.934272,76.3892631 C226.934272,73.592774 227.097571,72.8987548 227.648704,72.286385 C228.05695,71.8169014 228.689733,71.5311288 229.465401,71.5311288 C230.894264,71.5311288 231.629108,72.4292713 231.914881,73.592774 L234.793019,73.592774 C234.282711,70.551337 232.159829,69 229.444989,69 C227.852827,69 226.546438,69.5715452 225.525822,70.5921617 C224.056134,72.0618494 224.096959,73.8785466 224.096959,76.3892631 C224.096959,78.8999796 224.056134,80.7166769 225.525822,82.1863646 C226.546438,83.206981 227.852827,83.7785262 229.444989,83.7785262 C232.139416,83.7785262 234.282711,82.2271892 234.793019,79.1857522 Z M249,83.6560523 L243.835681,74.8991631 L248.65299,69.122474 L245.203307,69.122474 L240.079812,75.450296 L240.079812,69.122474 L237.242498,69.122474 L237.242498,83.6560523 L240.079812,83.6560523 L240.079812,79.2878138 L241.957746,77.0424576 L245.693203,83.6560523 L249,83.6560523 Z" id="skycheck-logo"></path>
        </g>
    </g>
</svg>