<?xml version="1.0" encoding="UTF-8"?>
<svg width="96px" height="64px" viewBox="0 0 96 64" version="1.1" xmlns="http://www.w3.org/2000/svg" xmlns:xlink="http://www.w3.org/1999/xlink">
    <!-- Generator: Sketch 54.1 (76490) - https://sketchapp.com -->
    <title>logo</title>
    <desc>Created with Sketch.</desc>
    <g id="Page-4" stroke="none" stroke-width="1" fill="none" fill-rule="evenodd">
        <g id="logo">
            <polygon id="shaddow" fill="#000000" points="0 8 56 8 56 16 64 16 64 8 88 8 88 32 80 32 80 40 88 40 88 64 63 64 63 56 55 56 55 64 0 64"></polygon>
            <polygon id="outline" fill="#000000" points="8 0 64 0 64 8 72 8 72 0 96 0 96 24 88 24 88 32 96 32 96 56 71 56 71 48 63 48 63 56 8 56"></polygon>
            <path d="M16,8 L24,8 L56,8 L56,16 L24,16 L24,24 L72,24 L72,32 L56,32 L56,48 L16,48 L16,40 L48,40 L48,32 L16,32 L16,8 Z M72,24 L72,16 L80,16 L80,24 L72,24 Z M72,40 L72,32 L80,32 L80,40 L72,40 Z M80,48 L80,40 L88,40 L88,48 L80,48 Z M80,16 L80,8 L88,8 L88,16 L80,16 Z" id="sk" fill="#FFFFFF" fill-rule="nonzero"></path>
        </g>
    </g>
</svg>