<?xml version="1.0" encoding="UTF-8"?>
<svg width="100px" height="27px" viewBox="0 0 100 27" version="1.1" xmlns="http://www.w3.org/2000/svg" xmlns:xlink="http://www.w3.org/1999/xlink">
    <!-- Generator: Sketch 54.1 (76490) - https://sketchapp.com -->
    <title>raceday-me-logo</title>
    <desc>Created with Sketch.</desc>
    <g id="projects" stroke="none" stroke-width="1" fill="none" fill-rule="evenodd">
        <g id="Artboard" transform="translate(-9.000000, -13.000000)">
            <g id="raceday-me-logo" transform="translate(9.000000, 13.000000)">
                <g id="raceday.me" transform="translate(30.867052, 6.242775)">
                    <path d="M64.7904773,7.9039375 C64.7904773,6.4971875 65.3963182,6.30753125 65.9885682,6.30753125 C66.5818636,6.30753125 67.1877045,6.4971875 67.1877045,7.9039375 L67.1877045,9.93596875 C67.1877045,10.0145937 67.1286364,10.0799375 67.0512727,10.0863125 L64.9499091,10.3216562 C64.8641818,10.3290937 64.7904773,10.2595 64.7904773,10.1718437 L64.7904773,7.9039375 Z M64.9269091,11.6561562 L67.8933864,11.3501562 C68.2326364,11.3230625 68.4945227,11.0345937 68.4945227,10.6882187 L68.4945227,7.9039375 C68.4945227,5.2646875 66.7423409,4.97940625 65.9885682,4.97940625 C65.2353182,4.97940625 63.4836591,5.2646875 63.4836591,7.9039375 L63.4836591,13.5670625 C63.4836591,16.2063125 65.2353182,16.4915937 65.9885682,16.4915937 C66.7423409,16.4915937 68.4945227,16.2063125 68.4945227,13.5670625 L68.4945227,12.8589062 C68.4945227,12.7760312 68.4281364,12.713875 68.3465909,12.7213125 L67.3361591,12.8110937 C67.2540909,12.8185312 67.1877045,12.8918437 67.1877045,12.97525 L67.1877045,13.5670625 C67.1877045,14.9738125 66.5818636,15.1634687 65.9885682,15.1634687 C65.3963182,15.1634687 64.7904773,14.9738125 64.7904773,13.5670625 L64.7904773,11.8059687 C64.7904773,11.7273437 64.8495455,11.662 64.9269091,11.6561562 L64.9269091,11.6561562 Z" id="Fill-9" fill="#33D0C2"></path>
                    <path d="M59.3535909,4.97940625 C58.9108409,4.97940625 58.1236136,5.0819375 57.5491364,5.7003125 C57.523,5.72846875 57.4801364,5.72846875 57.454,5.7003125 C56.8795227,5.0819375 56.0922955,4.97940625 55.6490227,4.97940625 C55.2125455,4.97940625 54.4404773,5.0798125 53.8686136,5.67534375 C53.8424773,5.70296875 53.8011818,5.7035 53.7750455,5.67640625 C53.5042727,5.39696875 53.1263409,5.22909375 52.5936818,5.22909375 L52.0882045,5.2264375 C52.0066591,5.2264375 51.9402727,5.29390625 51.9402727,5.37678125 L51.9402727,6.4036875 C51.9402727,6.48709375 52.0066591,6.5545625 52.0882045,6.5545625 L52.5936818,6.55721875 C53.0353864,6.55721875 53.1441136,7.0433125 53.1441136,9.033375 L53.1441136,16.201 C53.1441136,16.2844062 53.2099773,16.3513437 53.2920455,16.3513437 L54.3024773,16.3513437 C54.3845455,16.3513437 54.4509318,16.2844062 54.4509318,16.201 L54.4509318,7.9039375 C54.4509318,6.4971875 55.0567727,6.30753125 55.6490227,6.30753125 C56.2423182,6.30753125 56.8481591,6.4971875 56.8481591,7.9039375 L56.8481591,16.201 C56.8481591,16.2844062 56.9145455,16.3513437 56.9966136,16.3513437 L58.0070455,16.3513437 C58.0885909,16.3513437 58.1549773,16.2844062 58.1549773,16.201 L58.1549773,7.9039375 C58.1549773,6.4971875 58.7613409,6.30753125 59.3535909,6.30753125 C59.9463636,6.30753125 60.5522045,6.4971875 60.5522045,7.9039375 L60.5522045,16.201 C60.5522045,16.2844062 60.6185909,16.3513437 60.7006591,16.3513437 L61.7110909,16.3513437 C61.7926364,16.3513437 61.8590227,16.2844062 61.8590227,16.201 L61.8590227,7.9039375 C61.8590227,5.2646875 60.1073636,4.97940625 59.3535909,4.97940625" id="Fill-10" fill="#33D0C2"></path>
                    <path d="M50.1792045,16.3513438 L51.1891136,16.3513438 C51.2711818,16.3513438 51.3375682,16.2844062 51.3375682,16.201 L51.3375682,15.1740937 C51.3375682,15.0906875 51.2711818,15.0232187 51.1891136,15.0232187 L50.1792045,15.0232187 C50.0971364,15.0232187 50.03075,15.0906875 50.03075,15.1740937 L50.03075,16.201 C50.03075,16.2844062 50.0971364,16.3513438 50.1792045,16.3513438" id="Fill-4" fill="#33D0C2"></path>
                    <path d="M48.5535227,0.5811875 L47.5430909,0.5811875 C47.4610227,0.5811875 47.3946364,0.64865625 47.3946364,0.7320625 L47.3946364,9.870625 C47.3946364,9.9864375 47.3031591,10.0847187 47.1897273,10.0948125 C46.1259773,10.1883125 45.5070682,10.1139375 45.22375,9.8589375 C45.0758182,9.72559375 44.87875,9.432875 44.87875,8.43571875 L44.87875,0.7320625 C44.87875,0.64865625 44.8123636,0.5811875 44.7308182,0.5811875 L43.7203864,0.5811875 C43.6383182,0.5811875 43.5719318,0.64865625 43.5719318,0.7320625 L43.5719318,8.43571875 C43.5719318,9.2320625 43.6613182,10.2260312 44.3570682,10.8529062 C44.8588864,11.305 45.5546364,11.4633125 46.4234091,11.4633125 C46.6450455,11.4633125 46.8823636,11.4505625 47.1280455,11.430375 C47.2712727,11.4192187 47.3946364,11.532375 47.3946364,11.6779375 L47.3946364,13.5670625 C47.3946364,14.9738125 46.7511591,15.1634687 46.1217955,15.1634687 C45.4924318,15.1634687 44.8489545,14.9738125 44.8489545,13.5670625 L44.8489545,12.8445625 C44.8489545,12.7611562 44.7825682,12.6995312 44.7010227,12.7069687 L43.6905909,12.79675 C43.6085227,12.8041875 43.5421364,12.8775 43.5421364,12.9609062 L43.5421364,13.4565625 C43.5421364,13.4677187 43.5437045,13.6308125 43.5463182,13.6595 C43.5902273,16.2089687 45.356,16.4915937 46.1217955,16.4915937 C46.8975227,16.4915937 48.7014545,16.2063125 48.7014545,13.5670625 L48.7014545,0.7320625 C48.7014545,0.64865625 48.6355909,0.5811875 48.5535227,0.5811875" id="Fill-8" fill="#194169"></path>
                    <path d="M39.1224773,3.43346875 L39.8914091,9.93915625 C39.9013409,10.023625 39.8401818,10.100125 39.7565455,10.1070312 L38.18,10.2366562 C38.0864318,10.244625 38.0095909,10.1633437 38.0210909,10.0687812 L38.8051818,3.43346875 C38.8276591,3.24275 39.1,3.24275 39.1224773,3.43346875 Z M37.2934545,16.2190625 L37.8255909,11.719375 C37.8339545,11.6481875 37.8904091,11.5929375 37.9609773,11.587625 L39.9238182,11.426125 C40.0032727,11.4192187 40.0738409,11.4776562 40.08325,11.5584062 L40.6342045,16.2190625 C40.6430909,16.2950312 40.7063409,16.3513437 40.7810909,16.3513437 L41.7988409,16.3513437 C41.8877045,16.3513437 41.9567045,16.2727187 41.94625,16.1834687 L40.2113182,1.5098125 C40.1485909,0.98015625 39.7063636,0.5811875 39.1815455,0.5811875 L38.7466364,0.5811875 C38.2212955,0.5811875 37.7790682,0.979625 37.7163409,1.5098125 L35.9814091,16.1834687 C35.9709545,16.2727187 36.0399545,16.3513437 36.1288182,16.3513437 L37.1465682,16.3513437 C37.2218409,16.3513437 37.2845682,16.2950312 37.2934545,16.2190625 L37.2934545,16.2190625 Z" id="Fill-6" fill="#194169"></path>
                    <path d="M33.0489091,13.4273438 C33.0489091,14.7358125 33.0489091,14.983375 30.7175455,15.0184375 C30.6349545,15.0200313 30.5628182,14.9515 30.5628182,14.8675625 L30.5628182,2.0655 C30.5628182,1.9815625 30.6349545,1.9135625 30.7175455,1.914625 C33.0489091,1.9496875 33.0489091,2.19671875 33.0489091,3.50571875 L33.0489091,13.4273438 Z M34.3557273,3.50571875 C34.3557273,0.699125 33.0102273,0.5620625 29.4070682,0.58278125 C29.3255227,0.5833125 29.256,0.65078125 29.256,0.7341875 L29.256,16.1994063 C29.256,16.2822813 29.3255227,16.34975 29.4070682,16.3502813 C33.0102273,16.371 34.3557273,16.2339375 34.3557273,13.4273438 L34.3557273,3.50571875 L34.3557273,3.50571875 Z" id="Fill-1" fill="#194169"></path>
                    <path d="M22.4244773,1.3971875 L22.4244773,15.535875 C22.4244773,15.986375 22.7841136,16.351875 23.2273864,16.351875 L26.7212955,16.351875 C26.8038864,16.351875 26.8702727,16.283875 26.8702727,16.1999375 L26.8702727,15.1756875 C26.8702727,15.09175 26.8038864,15.02375 26.7212955,15.02375 L23.8807955,15.02375 C23.7982045,15.02375 23.7312955,14.95575 23.7312955,14.8718125 L23.7312955,11.2045937 C23.7312955,11.1254375 23.7914091,11.0595625 23.8687727,11.0531875 L26.5670909,10.831125 C26.6491591,10.82475 26.7103182,10.7514375 26.7035227,10.6680312 L26.6230227,9.6464375 C26.6162273,9.56303125 26.5440909,9.500875 26.4620227,9.50725 L23.8928182,9.7186875 C23.8060455,9.72559375 23.7312955,9.656 23.7312955,9.56728125 L23.7312955,2.06125 C23.7312955,1.9773125 23.7982045,1.9093125 23.8807955,1.9093125 L26.7212955,1.9093125 C26.8038864,1.9093125 26.8702727,1.8413125 26.8702727,1.75790625 L26.8702727,0.733125 C26.8702727,0.6491875 26.8038864,0.5811875 26.7212955,0.5811875 L23.2273864,0.5811875 C22.7841136,0.5811875 22.4244773,0.9466875 22.4244773,1.3971875" id="Fill-3" fill="#194169"></path>
                    <path d="M17.4894091,0.45421875 C16.7142045,0.45421875 14.90975,0.73896875 14.90975,3.37875 L14.90975,13.5670625 C14.90975,16.2063125 16.7142045,16.4915937 17.4894091,16.4915937 C18.2651364,16.4915937 20.0695909,16.2063125 20.0695909,13.5670625 L20.0695909,12.1433125 C20.0695909,12.0577812 20.0371818,11.9765 19.9169545,11.9887187 L18.9148864,12.0726562 C18.8176591,12.0816875 18.7627727,12.1417187 18.7627727,12.22725 L18.7627727,13.5670625 C18.7627727,14.9738125 18.1187727,15.1634687 17.4894091,15.1634687 C16.8600455,15.1634687 16.2165682,14.9738125 16.2165682,13.5670625 L16.2165682,3.37875 C16.2165682,1.972 16.8600455,1.78234375 17.4894091,1.78234375 C18.1187727,1.78234375 18.7627727,1.972 18.7627727,3.37875 L18.7627727,6.547125 C18.7627727,6.63265625 18.8307273,6.70225 18.9148864,6.70225 L19.9169545,6.6183125 C20.0011136,6.6183125 20.0695909,6.54871875 20.0695909,6.4631875 L20.0695909,3.37875 C20.0695909,0.73896875 18.2651364,0.45421875 17.4894091,0.45421875" id="Fill-2" fill="#194169"></path>
                    <path d="M10.4900909,3.43346875 L11.2590227,9.93915625 C11.2694773,10.023625 11.2077955,10.100125 11.1241591,10.1070312 L9.54761364,10.2366562 C9.45404545,10.244625 9.37720455,10.1633437 9.38818182,10.0687812 L10.1727955,3.43346875 C10.1952727,3.24275 10.4676136,3.24275 10.4900909,3.43346875 Z M8.66106818,16.2190625 L9.19320455,11.719375 C9.20156818,11.6481875 9.25802273,11.5929375 9.32859091,11.587625 L11.2914318,11.426125 C11.3708864,11.4192187 11.4409318,11.4776562 11.4508636,11.5584062 L12.0018182,16.2190625 C12.0107045,16.2950312 12.0739545,16.3513437 12.1487045,16.3513437 L13.1664545,16.3513437 C13.2553182,16.3513437 13.3243182,16.2727187 13.3138636,16.1834687 L11.5663864,1.40675 C11.5109773,0.93553125 11.1178864,0.5811875 10.6510909,0.5811875 L10.0117955,0.5811875 C9.545,0.5811875 9.15190909,0.93553125 9.09597727,1.40675 L7.34902273,16.1834687 C7.33856818,16.2727187 7.40756818,16.3513437 7.49643182,16.3513437 L8.51418182,16.3513437 C8.58945455,16.3513437 8.65218182,16.2950312 8.66106818,16.2190625 L8.66106818,16.2190625 Z" id="Fill-7" fill="#194169"></path>
                    <path d="M1.81490909,2.0655 C1.81490909,1.9815625 1.88704545,1.9135625 1.97015909,1.914625 C4.301,1.9496875 4.301,2.19671875 4.301,3.50571875 L4.301,9.4265 C4.301,10.6956563 4.15411364,10.8082813 3.2085,10.9389688 L1.9895,11.1620938 C1.89854545,11.1790938 1.81490909,11.1079063 1.81490909,11.013875 L1.81490909,2.0655 Z M1.81490909,16.201 L1.81490909,12.66925 C1.81490909,12.5964688 1.86613636,12.5337813 1.93670455,12.5215625 L2.86402273,12.3510313 C2.93406818,12.3382813 3.00306818,12.378125 3.02868182,12.4450625 L4.46931818,16.2551875 C4.49127273,16.3130938 4.54615909,16.3513438 4.60731818,16.3513438 L5.69040909,16.3513438 C5.79443182,16.3513438 5.86604545,16.245625 5.82840909,16.1473438 L4.32609091,12.1735938 C4.29786364,12.0986875 4.33654545,12.016875 4.40920455,11.9844688 C5.38618182,11.545125 5.60781818,10.6770625 5.60781818,9.4265 L5.60781818,3.50571875 C5.60781818,0.699125 4.26231818,0.5620625 0.659159091,0.58278125 C0.577613636,0.5833125 0.508090909,0.65078125 0.508090909,0.7341875 L0.508090909,16.201 C0.508090909,16.2844063 0.574477273,16.3513438 0.656545455,16.3513438 L1.66645455,16.3513438 C1.74852273,16.3513438 1.81490909,16.2844063 1.81490909,16.201 L1.81490909,16.201 Z" id="Fill-5" fill="#194169"></path>
                </g>
                <g id="raceday-icon">
                    <path d="M20.7047647,21.8408824 C18.7417059,21.4057059 16.1417647,21.1664118 13.3835294,21.1664118 L13.2284118,21.1664118 C12.9494118,20.0212941 11.8027059,19.2155294 10.5188824,19.5072353 C9.70570588,19.6925294 9.04447059,20.3516471 8.85811765,21.1637647 C8.51876471,22.6392353 9.63,23.9495294 11.0477647,23.9495294 C12.0107647,23.9495294 12.8271176,23.3412353 13.1479412,22.4899412 L13.3835294,22.4899412 C19.0567059,22.4899412 22.4375294,23.4857647 22.8562941,24.0792353 C22.4380588,24.6721765 19.0667647,25.6658824 13.4073529,25.6685294 C7.76276471,25.6658824 4.39464706,24.6774706 3.96158824,24.084 C4.11670588,23.9050588 4.788,23.4841765 6.60652941,23.0913529 C6.66847059,23.0781176 7.36782353,22.9468235 7.53776471,22.9161176 C7.59705882,22.9055294 7.63411765,22.8494118 7.62458824,22.7901176 L7.44776471,21.7323529 C7.43452941,21.6555882 7.36570588,21.6026471 7.28894118,21.6142941 C7.04276471,21.6529412 5.84841176,21.9049412 5.62658824,21.9637059 C3.57935294,22.4888824 2.61582353,23.1675882 2.61582353,24.0792353 C2.61582353,25.065 3.75882353,25.7971765 6.10994118,26.3181176 C8.06135294,26.7501176 10.6427647,26.9894118 13.3835294,26.9920588 C13.3904118,26.9920588 13.3978235,26.9920588 13.4047059,26.9920588 C13.4105294,26.9904706 13.4221765,26.9920588 13.4311765,26.9920588 C16.1719412,26.9894118 18.7533529,26.7501176 20.7042353,26.3181176 C23.0558824,25.7971765 24.1983529,25.065 24.1983529,24.0792353 C24.1983529,23.0934706 23.0558824,22.3612941 20.7047647,21.8408824" id="Fill-12" fill="#33D0C2"></path>
                    <path d="M15.3190588,15.1803529 C14.4714706,16.4647059 12.6476471,16.5562941 11.6756471,15.363 C11.0694706,14.6197059 11.0149412,13.5254118 11.5427647,12.7249412 C12.3903529,11.4405882 14.2141765,11.349 15.1867059,12.5417647 C15.7923529,13.2855882 15.8468824,14.3798824 15.3190588,15.1803529 Z M15.8341765,18.5828824 C16.5171176,18.2287059 17.1397059,17.7241765 17.6352353,17.0486471 C19.1959412,14.9193529 18.8920588,11.8514118 16.9337647,10.0805294 C14.7949412,8.14552941 11.4924706,8.31070588 9.558,10.4500588 C8.05129412,12.1161176 7.82470588,14.4857647 8.80623529,16.3672941 L11.1404118,20.8641176 C11.1785294,20.9377059 11.2695882,20.9662941 11.3431765,20.9276471 L15.8341765,18.5828824 L15.8341765,18.5828824 Z" id="Fill-14" fill="#194169"></path>
                    <path d="M21.7138235,15.8685882 L22.7091176,16.1057647 C22.7911765,16.1253529 22.8753529,16.0729412 22.8938824,15.9903529 C23.0511176,15.2851765 23.1305294,14.5831765 23.1305294,13.9007647 C23.1305294,8.57117647 18.7941176,4.23476471 13.4645294,4.23476471 C8.13494118,4.23476471 3.79852941,8.57117647 3.79852941,13.9007647 C3.79852941,14.5863529 3.879,15.2925882 4.03782353,16.002 C4.05635294,16.0845882 4.14052941,16.137 4.22311765,16.1174118 L5.21788235,15.8797059 C5.29729412,15.8606471 5.34494118,15.7817647 5.32694118,15.7023529 C5.19088235,15.0914118 5.12205882,14.4857647 5.12205882,13.9007647 C5.12205882,9.30070588 8.86447059,5.55829412 13.4645294,5.55829412 C18.0645882,5.55829412 21.807,9.30070588 21.807,13.9007647 C21.807,14.4831176 21.7392353,15.0845294 21.6047647,15.6917647 C21.5872941,15.7711765 21.6349412,15.8500588 21.7138235,15.8685882" id="Fill-13" fill="#33D0C2"></path>
                    <path d="M13.4645294,0.483352941 C6.066,0.483352941 0.0465882353,6.50223529 0.0465882353,13.9007647 C0.0465882353,14.8939412 0.158823529,15.8924118 0.380647059,16.8707647 C0.399176471,16.9533529 0.482823529,17.0047059 0.564882353,16.9851176 L1.56017647,16.7479412 C1.63958824,16.7288824 1.68723529,16.6505294 1.66976471,16.5711176 C1.47070588,15.6907059 1.37011765,14.7933529 1.37011765,13.9007647 C1.37011765,7.23229412 6.79552941,1.80688235 13.4645294,1.80688235 C20.133,1.80688235 25.5584118,7.23229412 25.5584118,13.9007647 C25.5584118,14.7896471 25.4588824,15.6838235 25.2614118,16.5605294 C25.2439412,16.6399412 25.2915882,16.7177647 25.3704706,16.7362941 L26.3673529,16.9729412 C26.4494118,16.9925294 26.5325294,16.9406471 26.5510588,16.8585882 C26.7707647,15.8844706 26.8819412,14.8897059 26.8819412,13.9007647 C26.8819412,6.50223529 20.8630588,0.483352941 13.4645294,0.483352941" id="Fill-11" fill="#33D0C2"></path>
                </g>
            </g>
        </g>
    </g>
</svg>