<?xml version="1.0" encoding="UTF-8"?>
<svg width="100px" height="39px" viewBox="0 0 100 39" version="1.1" xmlns="http://www.w3.org/2000/svg" xmlns:xlink="http://www.w3.org/1999/xlink">
    <!-- Generator: Sketch 54.1 (76490) - https://sketchapp.com -->
    <title>stickerlicious-logo</title>
    <desc>Created with Sketch.</desc>
    <g id="projects" stroke="none" stroke-width="1" fill="none" fill-rule="evenodd">
        <g id="Artboard" transform="translate(-9.000000, -64.000000)" fill="#100F0D" fill-rule="nonzero">
            <path d="M9.70007276,87.8021725 L9,84.9753203 C9.95945996,84.4568472 11.4375473,84.0932289 13.0975137,84.0932289 C16.7283685,84.0932289 18.5952978,85.8305491 18.5952978,88.1907425 C18.5699051,90.0589947 17.5582047,91.2769599 15.14605,92.1073841 C13.5904471,92.6519847 13.0975137,92.9630539 13.0975137,93.5596525 C13.0975137,94.2075877 13.6418203,94.5963047 14.6015963,94.5963047 C15.6906507,94.5963047 16.7803297,94.182195 17.350323,93.8706849 L18.0506971,96.5944599 C17.2729691,96.9832137 15.9504935,97.3198224 14.4718035,97.3198224 C11.3340511,97.3198224 9.31135062,95.5303573 9.31135062,93.1706415 C9.28522523,91.6659709 10.296359,90.2395728 12.9162006,89.3577754 C14.3943026,88.864695 14.7833136,88.5543608 14.7833136,87.906242 C14.7833136,87.2581231 14.2905272,86.8425435 13.0975137,86.8425435 C11.9304844,86.8425435 10.4266994,87.3614943 9.70007276,87.8021725 Z M25.3930679,100.66614 L21.5289388,99.7840486 L21.5289388,97.033999 L19.8429918,97.033999 L19.8429918,94.1302338 L21.5289388,94.1302338 L21.5289388,88.9433351 C21.5289388,87.1540536 21.8916752,85.9346185 22.6181769,85.1824669 C23.2403151,84.5343481 24.3039768,84.0932289 25.5740503,84.0932289 C26.6895629,84.0932289 27.6234685,84.222838 28.1419416,84.4302786 L28.115961,87.4131616 C27.8307622,87.3614943 27.4418982,87.3090921 26.9488178,87.3090921 C25.7559513,87.3090921 25.3930679,88.0103114 25.3930679,89.5397867 L25.3930679,94.1302338 L28.2197732,94.1302338 L28.2197732,97.033999 L25.3930679,97.033999 L25.3930679,100.66614 Z M30.5048544,84.3527778 L34.4467783,84.3527778 L34.4467783,97.033999 L30.5048544,97.033999 L30.5048544,84.3527778 Z M34.5762404,100.562071 C34.5504068,101.703123 33.7466982,102.558609 32.4758898,102.558609 C31.2052285,102.558609 30.3753923,101.703123 30.4007849,100.562071 C30.3753923,99.4725752 31.2052285,98.5909248 32.4496153,98.5909248 C33.7466982,98.5909248 34.5762404,99.4725752 34.5762404,100.562071 Z M47.1293959,84.6638101 L46.6623329,87.5682 C46.0655505,87.3349257 45.3400043,87.1794463 44.4056577,87.1794463 C42.4869142,87.1794463 40.9317155,88.3993224 40.9317155,90.7326533 C40.9051836,92.8070232 42.2536399,94.2862645 44.3281568,94.2862645 C45.3658379,94.2862645 46.0655505,94.1046941 46.532981,93.8972535 L47.1554868,96.8277342 C46.3253566,97.1380684 45.1844146,97.3198224 44.1468805,97.3198224 C39.4269346,97.3198224 36.8859058,94.2862645 36.8859058,90.5776148 C36.8859058,86.5834724 39.5050234,84.0932289 43.6019491,84.0932289 C45.1061788,84.0932289 46.4289851,84.3527778 47.1293959,84.6638101 Z M53.2533973,91.6922455 L53.2533973,102.765866 L49.3111059,102.765866 L49.3111059,84.3527778 L53.2533973,84.3527778 L53.2533973,88.3206456 L54.2639586,89.5663553 L57.3243057,84.3527778 L62.1738974,84.3527778 L56.9873294,91.8996862 L61.5260357,97.033999 L56.7800725,97.033999 L54.2128793,93.2226028 C53.901259,92.7295224 53.5903736,92.2107553 53.3044766,91.6922455 L53.2533973,91.6922455 Z M70.6850283,92.1329237 L66.0162351,92.1329237 C66.1202311,93.1960342 66.7938161,94.7004108 68.4537089,94.7004108 C70.2705144,94.7004108 70.6850283,93.0929569 70.6850283,92.1329237 Z M66.0419585,89.4364155 L74.2128058,89.4364155 C74.2646201,89.721357 74.3421577,90.3181026 74.3421577,90.9920184 C74.3421577,94.1302338 72.7862608,97.3198224 68.6888941,97.3198224 C64.2791721,97.3198224 62.2812006,93.7677914 62.2812006,90.5510462 C62.2812006,86.5834724 64.7455002,84.0932289 69.0512263,84.0932289 C70.7633008,84.0932289 72.3452886,84.3527778 73.6417468,84.8712508 L73.123237,87.5426236 C72.060494,87.2050227 70.9705578,87.0244446 69.6219178,87.0244446 C67.7801239,87.0244446 66.1713103,87.8021725 66.0419585,89.4364155 Z M76.7072386,92.8589844 L76.7072386,84.3527778 L80.64953,84.3527778 L80.64953,90.7846145 C80.64953,91.0960878 80.6748859,91.4066058 80.7270676,91.6659709 C80.9865063,92.8857 81.9702417,93.663722 83.4225102,93.663722 C83.8638498,93.663722 84.2008261,93.6116137 84.4867231,93.5596525 L84.4867231,97.2677142 C84.2008261,97.3198224 84.0189251,97.3198224 83.6565929,97.3198224 C82.4380397,97.3198224 80.8817754,96.5424987 80.2339137,94.7004108 L80.1299178,94.7004108 L80.0001984,97.033999 L76.6032426,97.033999 C76.6550568,95.9459368 76.7072386,94.7262445 76.7072386,92.8589844 Z M30.5059935,64.2852252 L34.4477705,64.2852252 L34.4477705,82.6976886 L30.5059935,82.6976886 L30.5059935,64.2852252 Z M37.6386453,64.2852252 L41.5798343,64.2852252 L41.5798343,76.9668977 L37.6386453,76.9668977 L37.6386453,64.2852252 Z M41.7095904,80.4938301 C41.6834628,81.6347354 40.8800482,82.4905522 39.6090928,82.4905522 C38.3381375,82.4905522 37.5083013,81.6347354 37.5345759,80.4938301 C37.5083013,79.404298 38.3381375,78.5226476 39.5837002,78.5226476 C40.8800482,78.5226476 41.7095904,79.404298 41.7095904,80.4938301 Z M54.2639586,64.5960033 L53.7965281,67.5000735 C53.1993782,67.2672439 52.4747139,67.1114961 51.5394854,67.1114961 C49.6205214,67.1114961 48.0653594,68.3302 48.0653594,70.6645231 C48.0392686,72.7387828 49.3879085,74.21773 51.4630502,74.21773 C52.5000698,74.21773 53.1993782,74.036417 53.6668088,73.8282781 L54.2893145,76.7584648 C53.4595518,77.0699749 52.3185363,77.2515452 51.2804142,77.2515452 C46.5605418,77.2515452 44.0195498,74.21773 44.0195498,70.5084924 C44.0195498,66.5153495 46.6388144,64.0256947 50.736181,64.0256947 C52.2409987,64.0256947 53.5628128,64.2852252 54.2639586,64.5960033 Z M56.4453011,64.2852252 L60.3864901,64.2852252 L60.3864901,76.9668977 L56.4453011,76.9668977 L56.4453011,64.2852252 Z M60.5158419,80.4938301 C60.490486,81.6347354 59.6871817,82.4905522 58.4164468,82.4905522 C57.1453444,82.4905522 56.3155818,81.6347354 56.3413051,80.4938301 C56.3155818,79.404298 57.1453444,78.5226476 58.389621,78.5226476 C59.6871817,78.5226476 60.5158419,79.404298 60.5158419,80.4938301 Z M66.898547,70.6391304 C66.898547,72.5062434 67.5982229,74.4505633 69.4925659,74.4505633 C71.2829131,74.4505633 72.0086798,72.5317831 72.0086798,70.6391304 C72.0086798,68.3567686 71.0234744,66.8265583 69.4925659,66.8265583 C67.8054798,66.8265583 66.898547,68.4596621 66.898547,70.6391304 Z M76.0806906,70.7685925 C76.0806906,74.5801724 73.4866716,77.2515452 69.5958269,77.2515452 C65.5230812,77.2515452 62.8265362,74.6321336 62.8265362,70.535061 C62.8265362,66.4378339 65.6792589,64 69.3889375,64 C72.7862608,64 76.0806906,66.1263422 76.0806906,70.7685925 Z M90.4765954,68.3567686 L90.4765954,76.9668977 L86.5089481,76.9668977 L86.5089481,69.4196953 C86.5089481,69.1092141 86.4824897,68.7977408 86.3788613,68.5637315 C86.1197901,67.941189 85.4969169,67.189008 84.408083,67.189008 C83.0329847,67.189008 82.4369373,68.3046603 82.4369373,70.14605 L82.4369373,76.9668977 L78.4700249,76.9668977 L78.4700249,69.5237647 C78.4700249,65.6077111 80.3632655,64 82.9297237,64 C85.2124898,64 86.4045846,65.2965024 86.8973711,66.0743773 L86.9752762,66.0743773 L87.1571772,64.2852252 L90.5805913,64.2852252 C90.5284096,65.3483239 90.4765954,66.6969345 90.4765954,68.3567686 Z M93.6181548,67.7340423 L92.9181115,64.9073517 C93.8775935,64.3891506 95.3555853,64.0256947 97.0154781,64.0256947 C100.645782,64.0256947 102.513666,65.7627423 102.513666,68.1227593 C102.486841,69.9898723 101.475177,71.2090135 99.0641615,72.0387027 C97.5075296,72.5837443 97.0154781,72.8949604 97.0154781,73.4913753 C97.0154781,74.1394942 97.5597113,74.5280642 98.5188258,74.5280642 C99.6080272,74.5280642 100.697228,74.1139546 101.26792,73.8028854 L101.968331,76.5259255 C101.190382,76.9149365 99.8674658,77.2515452 98.3891065,77.2515452 C95.2515893,77.2515452 93.2293643,75.4622638 93.2293643,73.1023643 C93.2040084,71.5987227 94.2156722,70.1714426 96.8339446,69.2897922 C98.3115689,68.7977408 98.7007269,68.4862306 98.7007269,67.8381118 C98.7007269,67.189008 98.2079404,66.7744501 97.0154781,66.7744501 C95.8480042,66.7744501 94.345024,67.2930811 93.6181548,67.7340423 Z M104.357665,66.3854428 C104.357665,65.0101313 105.317147,64 106.665787,64 C108.066241,64 109,65.0101313 109,66.3854428 C109,67.8115799 108.066241,68.7977408 106.692246,68.7977408 C105.317147,68.7977408 104.357665,67.7861505 104.357665,66.3854428 Z" id="stickerlicious-logo" transform="translate(59.000000, 83.382933) scale(1, -1) translate(-59.000000, -83.382933) "></path>
        </g>
    </g>
</svg>